# xmcd
#
# Track frame offsets:
#	150
#	13582
#	26904
#	37847
#	50004
#	62719
#	75924
#	92172
#	113255
#	135027
#	152015
#	165133
#	180906
#	196154
#	207707
#	226156
# Disc length: 3225 seconds
# Revision: 2
# Processed by: cddbd v1.5.2PL0 Copyright (c) Steve Scherf et al.
#
# Submitted via: libkcddb 0.31
#
DISCID=b00c9710
DTITLE=Various Artist - Country Stars
DYEAR=1900
DGENRE=Country
TTITLE0=Billy Swan - I can help
TTITLE1=Lynn Anderson - Rose Garden
TTITLE2=Dolly Parton - Needles
TTITLE3=Tammy Wynette - Stand by your Man
TTITLE4=Jonny Horton - North to Alaska
TTITLE5=Tanya Tucker - Delta Dawn
TTITLE6=The Charlie Daniels Band - The Devil went down to Georgia
TTITLE7=Marty Robbins - El Paso
TTITLE8=Merle Haggard - Pancho and Lefty
TTITLE9=Shenandoah - I got you
TTITLE10=Lacy J. Dalton - Dream Baby
TTITLE11=Larry Gatlin and The Gatlin Brothers - Love is just a Game
TTITLE12=Patty Loveless - You can feel bad
TTITLE13=Charly Rich - The most beautiful Girl
TTITLE14=Kris Kristofferson - Me and Bobby Mcgee
TTITLE15=Willie Nelson - Always on my Mind
EXTD=
EXTT0=
EXTT1=
EXTT2=
EXTT3=
EXTT4=
EXTT5=
EXTT6=
EXTT7=
EXTT8=
EXTT9=
EXTT10=
EXTT11=
EXTT12=
EXTT13=
EXTT14=
EXTT15=
PLAYORDER=
